HIERARCHY
ROOT Hips
{
	OFFSET 0.00000 0.00000 0.00000
	CHANNELS 6 Xposition Yposition Zposition Zrotation Yrotation Xrotation 
	JOINT LHipJoint
	{
		OFFSET 0 0 0
		CHANNELS 3 Zrotation Yrotation Xrotation
		JOINT LeftUpLeg
		{
			OFFSET 1.54859 -1.61379 0.86856
			CHANNELS 3 Zrotation Yrotation Xrotation
			JOINT LeftLeg
			{
				OFFSET 2.25087 -6.18423 0.00000
				CHANNELS 3 Zrotation Yrotation Xrotation
				JOINT LeftFoot
				{
					OFFSET 2.40328 -6.60297 0.00000
					CHANNELS 3 Zrotation Yrotation Xrotation
					JOINT LeftToeBase
					{
						OFFSET 0.17435 -0.47901 2.02453
						CHANNELS 3 Zrotation Yrotation Xrotation
						End Site
						{
							OFFSET 0.00000 -0.00000 1.04844
						}
					}
				}
			}
		}
	}
	JOINT RHipJoint
	{
		OFFSET 0 0 0
		CHANNELS 3 Zrotation Yrotation Xrotation
		JOINT RightUpLeg
		{
			OFFSET -1.54669 -1.61379 0.86856
			CHANNELS 3 Zrotation Yrotation Xrotation
			JOINT RightLeg
			{
				OFFSET -2.28132 -6.26789 0.00000
				CHANNELS 3 Zrotation Yrotation Xrotation
				JOINT RightFoot
				{
					OFFSET -2.51636 -6.91365 0.00000
					CHANNELS 3 Zrotation Yrotation Xrotation
					JOINT RightToeBase
					{
						OFFSET -0.15124 -0.41552 2.21090
						CHANNELS 3 Zrotation Yrotation Xrotation
						End Site
						{
							OFFSET -0.00000 -0.00000 1.13399
						}
					}
				}
			}
		}
	}
	JOINT LowerBack
	{
		OFFSET 0 0 0
		CHANNELS 3 Zrotation Yrotation Xrotation
		JOINT Spine
		{
			OFFSET -0.04287 2.26161 -0.25690
			CHANNELS 3 Zrotation Yrotation Xrotation
			JOINT Spine1
			{
				OFFSET 0.02248 2.28395 -0.10140
				CHANNELS 3 Zrotation Yrotation Xrotation
				JOINT Neck
				{
					OFFSET 0 0 0
					CHANNELS 3 Zrotation Yrotation Xrotation
					JOINT Neck1
					{
						OFFSET -0.11644 1.38496 0.11345
						CHANNELS 3 Zrotation Yrotation Xrotation
						JOINT Head
						{
							OFFSET 0.29383 1.36600 0.06642
							CHANNELS 3 Zrotation Yrotation Xrotation
							End Site
							{
								OFFSET 0.11075 1.41395 -0.00294
							}
						}
					}
				}
				JOINT LeftShoulder
				{
					OFFSET 0 0 0
					CHANNELS 3 Zrotation Yrotation Xrotation
					JOINT LeftArm
					{
						OFFSET 3.51628 0.59542 -0.30346
						CHANNELS 3 Zrotation Yrotation Xrotation
						JOINT LeftForeArm
						{
							OFFSET 4.76405 -0.00000 0.00000
							CHANNELS 3 Zrotation Yrotation Xrotation
							JOINT LeftHand
							{
								OFFSET 3.13759 -0.00000 -0.00000
								CHANNELS 3 Zrotation Yrotation Xrotation
								JOINT LeftFingerBase
								{
									OFFSET 0 0 0
									CHANNELS 3 Zrotation Yrotation Xrotation
									JOINT LeftHandIndex1
									{
										OFFSET 0.73226 -0.00000 -0.00000
										CHANNELS 3 Zrotation Yrotation Xrotation
										End Site
										{
											OFFSET 0.59037 -0.00000 -0.00000
										}
									}
								}
								JOINT LThumb
								{
									OFFSET 0 0 0
									CHANNELS 3 Zrotation Yrotation Xrotation
									End Site
									{
										OFFSET 0.59938 -0.00000 0.59938
									}
								}
							}
						}
					}
				}
				JOINT RightShoulder
				{
					OFFSET 0 0 0
					CHANNELS 3 Zrotation Yrotation Xrotation
					JOINT RightArm
					{
						OFFSET -3.30990 0.84213 -0.36430
						CHANNELS 3 Zrotation Yrotation Xrotation
						JOINT RightForeArm
						{
							OFFSET -5.10161 -0.00000 -0.00000
							CHANNELS 3 Zrotation Yrotation Xrotation
							JOINT RightHand
							{
								OFFSET -3.23267 -0.00000 -0.00000
								CHANNELS 3 Zrotation Yrotation Xrotation
								JOINT RightFingerBase
								{
									OFFSET 0 0 0
									CHANNELS 3 Zrotation Yrotation Xrotation
									JOINT RightHandIndex1
									{
										OFFSET -0.70200 -0.00000 -0.00000
										CHANNELS 3 Zrotation Yrotation Xrotation
										End Site
										{
											OFFSET -0.56597 -0.00000 -0.00000
										}
									}
								}
								JOINT RThumb
								{
									OFFSET 0 0 0
									CHANNELS 3 Zrotation Yrotation Xrotation
									End Site
									{
										OFFSET -0.57461 -0.00000 0.57461
									}
								}
							}
						}
					}
				}
			}
		}
	}
}
MOTION
Frames: 11
Frame Time: 0.0571429
0.00 0.00 0.00 0 0 0 0 0 0 -21 0 0 0 0 0 0 0 0 0 0 0 0 0 0 21 0 0 0 0 0 0 0 0 0 0 0 0 0 0 0 0 0 0 0 0 0 0 -16 0 0 21 0 0 11 0 0 0 -8 0 0 0 0 0 0 0 0 0 0 0 0 0 0 0 0 0 0 0 0 8 0 0 0 0 0 0 0 0 0 0 0 0 0 0 0 0 0
0.00 0.00 0.00 169.1550 50.4843 175.3890 0.0000 0.0000 0.0000 -13.6586 17.6573 -2.1569 4.1018 12.2946 36.7823 -0.8788 22.5831 -25.1136 8.9690 16.7877 55.9829 0.0000 0.0000 0.0000 -9.1762 -10.0664 -41.1311 -11.3335 -18.0945 63.8601 -0.2830 -12.3667 -20.8541 -1.9142 8.6850 -24.8150 -11.0813 0.4159 10.1992 -4.2907 0.4319 6.9362 1.6768 0.2500 1.6394 -9.9442 -1.5684 -11.4289 13.3937 -0.6261 -2.9541 5.6991 0.1961 1.1080 0.0000 0.0000 0.0000 -94.1738 1.7896 51.0628 98.2000 -59.7444 -67.0953 -0.0000 -0.0000 177.1300 0.7736 -2.3343 -0.0315 -7.1250 0.0000 -0.0000 -19.5607 27.4333 8.8357 0.0000 0.0000 0.0000 88.8810 -8.3671 47.1677 -81.5714 59.7299 -52.7073 0.0000 -0.0000 -29.8490 -37.8623 25.6146 -18.5771 7.1250 -0.0000 -0.0000 -4.8017 1.1920 -4.9177
0.00 0.00 0.00 168.9120 51.0631 175.1260 0.0000 0.0000 0.0000 -12.0378 17.7287 -3.6681 6.6868 15.0624 47.6797 -1.5283 25.1731 -24.2019 8.0674 16.1686 52.8053 0.0000 0.0000 0.0000 -13.4457 -7.9281 -39.2199 -9.5516 -17.1499 57.9788 0.0465 -11.0965 -15.0952 -0.8140 5.7574 -16.0822 -8.9699 -2.7860 11.0624 -2.8586 -3.8591 7.0323 2.3795 -1.9084 1.6544 -6.3622 3.0123 -12.7369 6.6796 4.9896 -1.3395 3.5932 2.7888 1.4655 0.0000 -0.0000 0.0000 -92.6487 -3.9605 54.2064 93.0912 -59.9639 -62.6767 -0.0000 -0.0000 172.3620 9.2653 13.5095 2.1824 -7.1250 0.0000 -0.0000 -16.3754 43.0482 0.8121 0.0000 -0.0000 0.0000 85.3006 -5.9683 42.1185 -102.3665 59.4142 -70.6886 0.0000 -0.0000 -21.0786 -34.7211 21.6490 -14.3407 7.1250 -0.0000 -0.0000 -3.6953 -4.2496 -3.4185
0.00 0.00 0.00 169.8240 50.9665 176.2510 0.0000 0.0000 0.0000 -10.7498 16.4649 -5.9672 8.3965 16.4032 53.9784 -1.1620 24.1509 -25.5569 6.3485 14.7578 46.3650 0.0000 0.0000 0.0000 -13.1741 -8.3753 -38.3761 -9.4750 -17.1038 57.7187 0.2614 -12.4354 -13.6816 -2.4556 9.7567 -28.1925 -7.9274 -3.6549 11.2738 -1.6013 -4.9864 7.0838 3.2095 -2.4943 1.7201 -5.9720 3.9758 -12.8605 4.5447 6.2769 -1.7509 2.8288 3.3747 1.3197 -0.0000 0.0000 0.0000 -94.1511 -6.3911 41.3128 50.9216 -53.3605 -26.9119 -0.0000 -0.0000 114.0650 65.3253 17.3976 33.0574 -7.1250 0.0000 -0.0000 48.4628 59.7090 20.2041 -0.0000 0.0000 0.0000 84.0301 -4.1520 42.1622 -110.4804 58.3542 -77.6385 0.0000 -0.0000 -16.6563 -34.1932 19.5017 -12.7794 7.1250 -0.0000 -0.0000 -3.7273 -6.8420 -3.2638
0.00 0.00 0.00 172.0540 52.2560 179.3640 0.0000 0.0000 0.0000 -8.3264 13.2678 -15.1114 14.0942 19.1424 72.4919 -2.5509 27.8345 -18.8961 4.8622 13.2269 40.2239 0.0000 0.0000 0.0000 -11.8864 -10.9373 -40.1936 -11.1926 -18.0281 63.4056 -0.3446 -8.7423 -17.5268 -4.3026 12.5526 -37.7159 -2.2065 -4.3417 12.8135 0.8955 -5.3143 7.9018 2.7555 -2.4961 1.4401 -5.2968 5.4924 -11.2401 0.5603 8.4192 -7.6312 1.2491 4.5624 -0.7843 0.0000 -0.0000 0.0000 -94.5892 -7.2081 35.0095 52.6271 -54.0016 -28.2861 -0.0000 -0.0000 117.6970 70.5375 20.7867 45.1221 -7.1250 0.0000 -0.0000 69.6328 65.1325 42.3441 0.0000 -0.0000 0.0000 84.1285 5.3749 47.5450 -127.2395 54.0500 -91.6059 0.0000 0.0000 0.3630 -33.5914 13.6018 -8.8777 7.1250 -0.0000 -0.0000 -4.1917 -13.8143 -3.0780
0.00 0.00 0.00 172.6260 55.8169 178.6330 0.0000 0.0000 0.0000 -8.2702 15.5803 -26.7918 19.9667 20.0000 89.9026 -1.9794 24.6072 -15.6857 5.2115 13.6181 41.7285 0.0000 0.0000 0.0000 -12.5684 -13.3353 -40.1669 -12.7938 -18.7064 68.4837 -0.8286 -6.1090 -20.4667 -5.9371 14.3671 -44.7286 3.7144 -3.2827 21.2446 2.3514 -2.2860 9.8387 0.8887 -0.5804 -1.2322 -4.6769 4.8012 -10.7869 -2.4469 7.7956 -15.0580 -0.0055 4.6904 -3.1336 0.0000 0.0000 0.0000 -95.0240 1.4550 21.5070 46.0183 -51.2577 -23.0303 -0.0000 -0.0000 90.1500 105.0374 20.2386 127.8328 -7.1250 0.0000 -0.0000 119.5082 60.8198 95.0097 0.0000 0.0000 0.0000 82.5020 21.9144 60.3506 -122.8742 55.4941 -88.0392 0.0000 0.0000 19.3316 -34.6197 7.3976 -5.0795 7.1250 -0.0000 -0.0000 -5.6451 -21.0330 -3.2585
0.00 0.00 0.00 175.4920 56.7362 181.9340 0.0000 0.0000 0.0000 -7.8033 16.0645 -38.4294 23.3153 19.7344 99.7345 -1.5023 21.5049 -12.8738 5.7393 14.1709 43.9264 0.0000 0.0000 0.0000 -11.4268 -14.6441 -39.9008 -13.0648 -18.8054 69.3267 -1.1030 -5.2721 -22.3997 -6.3364 14.7466 -46.3173 8.2406 -2.3282 25.0593 3.0968 0.4865 10.1357 -1.4819 0.9637 -2.6840 -5.7491 3.5168 -10.5773 -1.4324 6.4731 -16.9130 0.4446 4.2200 -3.9021 0.0000 -0.0000 0.0000 -92.8785 6.6874 19.6882 28.8550 -39.8915 -10.6676 -0.0000 -0.0000 41.3485 148.9789 45.9219 156.6350 -7.1250 0.0000 -0.0000 -158.9201 79.4046 -155.4484 0.0000 -0.0000 0.0000 78.8126 27.6472 60.1120 -107.8957 58.7546 -75.4333 0.0000 0.0000 24.8532 -35.2380 5.8736 -4.1348 7.1250 -0.0000 -0.0000 -6.2582 -22.8128 -3.3617
0.00 0.00 0.00 175.8300 57.8972 182.1130 0.0000 0.0000 0.0000 -8.3434 17.1039 -43.5684 24.5640 19.4931 103.4534 -1.1892 19.4980 -12.6878 5.9127 14.3432 44.6304 0.0000 0.0000 0.0000 -11.7761 -14.5577 -38.8898 -13.0220 -18.7901 69.1938 -1.2735 -4.3564 -23.2902 -6.3267 14.7376 -46.2791 9.1620 -1.2971 27.1667 3.0396 2.3975 10.8468 -2.6027 2.0096 -2.6887 -5.9499 2.6099 -11.6304 -1.1778 5.5711 -17.7250 0.5723 3.8921 -4.0094 -0.0000 -0.0000 0.0000 -90.9224 7.8380 15.0763 22.8485 -33.9228 -7.0536 -0.0000 -0.0000 42.0633 164.8656 32.0189 171.8394 -7.1250 0.0000 -0.0000 -160.8230 60.3255 -153.6997 -0.0000 -0.0000 0.0000 76.5338 31.0861 57.0402 -92.0909 59.9835 -61.8107 0.0000 0.0000 25.1024 -35.2769 5.4868 -3.8697 7.1250 -0.0000 -0.0000 -6.3285 -23.2782 -3.3320
0.00 0.00 0.00 177.3280 57.4651 183.7680 0.0000 0.0000 0.0000 -9.0050 16.8705 -52.5389 25.9657 19.1244 107.6909 -0.8824 17.1345 -11.9091 5.8562 14.2875 44.4019 0.0000 0.0000 0.0000 -11.6139 -15.9634 -36.6430 -12.7658 -18.6960 68.3965 -1.4873 -3.7457 -24.6489 -6.1767 14.5974 -45.6867 10.1359 -0.6048 28.9548 3.0348 3.8813 11.3015 -3.6248 2.8298 -2.7752 -6.0287 1.9563 -12.2129 -0.4457 4.9187 -17.7617 0.8431 3.5992 -3.9284 -0.0000 0.0000 0.0000 -87.5095 11.7231 9.9878 16.4312 -26.1018 -3.8337 -0.0000 -0.0000 35.7043 -173.6811 8.9184 -179.0165 -7.1250 0.0000 -0.0000 -154.9129 29.2232 -143.6534 -0.0000 0.0000 0.0000 75.1083 37.2147 51.8570 -57.0293 55.4649 -31.8813 0.0000 0.0000 27.0367 -35.1257 4.2116 -2.9575 7.1250 -0.0000 -0.0000 -6.3503 -24.8346 -3.1141
0.00 0.00 0.00 183.3540 55.4182 189.6070 0.0000 0.0000 0.0000 -10.4849 14.6359 -67.2258 26.6005 18.9217 109.6381 -1.2142 19.6625 -12.6825 6.9896 15.3232 48.8351 0.0000 0.0000 0.0000 -8.9083 -18.3128 -30.1590 -11.3477 -18.1011 63.9057 -1.2987 -7.6638 -25.5427 -7.2746 15.5588 -49.9054 11.5966 0.4571 29.5148 3.0724 5.8635 12.0637 -4.9238 4.0112 -1.7418 -5.2992 0.7898 -13.2082 -0.1074 3.4597 -17.4263 0.8468 2.8628 -3.5724 -0.0000 -0.0000 0.0000 -80.2355 21.3921 15.2423 12.2047 -20.1108 -2.1721 -0.0000 -0.0000 26.4996 -146.0244 -16.4153 169.2177 -7.1250 0.0000 -0.0000 -142.8386 -14.3236 -144.4147 -0.0000 -0.0000 0.0000 79.3940 52.4327 30.5190 -16.0388 25.5732 -3.6627 0.0000 0.0000 41.7439 -34.9962 3.9014 -2.7272 7.1250 -0.0000 -0.0000 -6.2849 -25.2181 -3.0254
0.00 0.00 0.00 186.4570 52.5531 192.4120 0.0000 0.0000 0.0000 -12.7905 12.1826 -74.2468 25.8901 19.1470 107.4603 -1.4819 21.6979 -14.4635 6.3532 14.7621 46.3832 0.0000 0.0000 0.0000 -7.4122 -20.0377 -22.6211 -9.3495 -17.0274 57.2911 -1.5690 -5.9255 -26.4396 -6.9848 15.3191 -48.8167 11.5243 1.6466 29.6554 3.5155 7.4972 12.1399 -4.8321 4.8433 -1.5432 -6.1200 -0.7590 -13.3752 1.4193 1.6602 -17.2747 1.4913 1.9999 -3.4651 0.0000 0.0000 0.0000 -75.2256 27.6573 31.9857 13.8523 -22.5231 -2.7713 -0.0000 -0.0000 14.2135 -127.3334 -13.4262 163.0683 -7.1250 0.0000 -0.0000 -123.7132 -36.8034 -158.6762 0.0000 0.0000 0.0000 77.0417 56.6462 -8.4231 -9.0387 15.2221 -1.2103 0.0000 0.0000 41.2864 -37.0636 13.9405 -10.3128 7.1250 -0.0000 -0.0000 -6.4525 -12.7817 -4.8969
